<svg aria-hidden="true" style="position: absolute; width: 0; height: 0; overflow: hidden;" version="1.1" xmlns="http://www.w3.org/2000/svg" xmlns:xlink="http://www.w3.org/1999/xlink">
<defs>
<symbol id="icon-video-camera" viewBox="0 0 32 32">
<path d="M12 9c0-2.761 2.239-5 5-5s5 2.239 5 5c0 2.761-2.239 5-5 5s-5-2.239-5-5zM0 9c0-2.761 2.239-5 5-5s5 2.239 5 5c0 2.761-2.239 5-5 5s-5-2.239-5-5zM24 19v-3c0-1.1-0.9-2-2-2h-20c-1.1 0-2 0.9-2 2v10c0 1.1 0.9 2 2 2h20c1.1 0 2-0.9 2-2v-3l8 5v-14l-8 5zM20 24h-16v-6h16v6z"></path>
</symbol>
<symbol id="icon-search" viewBox="0 0 32 32">
<path d="M31.008 27.231l-7.58-6.447c-0.784-0.705-1.622-1.029-2.299-0.998 1.789-2.096 2.87-4.815 2.87-7.787 0-6.627-5.373-12-12-12s-12 5.373-12 12 5.373 12 12 12c2.972 0 5.691-1.081 7.787-2.87-0.031 0.677 0.293 1.515 0.998 2.299l6.447 7.58c1.104 1.226 2.907 1.33 4.007 0.23s0.997-2.903-0.23-4.007zM12 20c-4.418 0-8-3.582-8-8s3.582-8 8-8 8 3.582 8 8-3.582 8-8 8z"></path>
</symbol>
<symbol id="icon-star-full" viewBox="0 0 32 32">
<path d="M32 12.408l-11.056-1.607-4.944-10.018-4.944 10.018-11.056 1.607 8 7.798-1.889 11.011 9.889-5.199 9.889 5.199-1.889-11.011 8-7.798z"></path>
</symbol>
<symbol id="icon-play" viewBox="0 0 32 32">
<path d="M30.662 5.003c-4.488-0.645-9.448-1.003-14.662-1.003s-10.174 0.358-14.662 1.003c-0.86 3.366-1.338 7.086-1.338 10.997s0.477 7.63 1.338 10.997c4.489 0.645 9.448 1.003 14.662 1.003s10.174-0.358 14.662-1.003c0.86-3.366 1.338-7.086 1.338-10.997s-0.477-7.63-1.338-10.997zM12 22v-12l10 6-10 6z"></path>
</symbol>
<symbol id="icon-link" viewBox="0 0 32 32">
<path d="M13.757 19.868c-0.416 0-0.832-0.159-1.149-0.476-2.973-2.973-2.973-7.81 0-10.783l6-6c1.44-1.44 3.355-2.233 5.392-2.233s3.951 0.793 5.392 2.233c2.973 2.973 2.973 7.81 0 10.783l-2.743 2.743c-0.635 0.635-1.663 0.635-2.298 0s-0.635-1.663 0-2.298l2.743-2.743c1.706-1.706 1.706-4.481 0-6.187-0.826-0.826-1.925-1.281-3.094-1.281s-2.267 0.455-3.094 1.281l-6 6c-1.706 1.706-1.706 4.481 0 6.187 0.635 0.635 0.635 1.663 0 2.298-0.317 0.317-0.733 0.476-1.149 0.476z"></path>
<path d="M8 31.625c-2.037 0-3.952-0.793-5.392-2.233-2.973-2.973-2.973-7.81 0-10.783l2.743-2.743c0.635-0.635 1.664-0.635 2.298 0s0.635 1.663 0 2.298l-2.743 2.743c-1.706 1.706-1.706 4.481 0 6.187 0.826 0.826 1.925 1.281 3.094 1.281s2.267-0.455 3.094-1.281l6-6c1.706-1.706 1.706-4.481 0-6.187-0.635-0.635-0.635-1.663 0-2.298s1.663-0.635 2.298 0c2.973 2.973 2.973 7.81 0 10.783l-6 6c-1.44 1.44-3.355 2.233-5.392 2.233z"></path>
</symbol>
<symbol id="icon-facebook" viewBox="0 0 32 32">
<path d="M19 6h5v-6h-5c-3.86 0-7 3.14-7 7v3h-4v6h4v16h6v-16h5l1-6h-6v-3c0-0.542 0.458-1 1-1z"></path>
</symbol>
<symbol id="icon-instagram" viewBox="0 0 32 32">
<path d="M16 2.881c4.275 0 4.781 0.019 6.462 0.094 1.563 0.069 2.406 0.331 2.969 0.55 0.744 0.288 1.281 0.638 1.837 1.194 0.563 0.563 0.906 1.094 1.2 1.838 0.219 0.563 0.481 1.412 0.55 2.969 0.075 1.688 0.094 2.194 0.094 6.463s-0.019 4.781-0.094 6.463c-0.069 1.563-0.331 2.406-0.55 2.969-0.288 0.744-0.637 1.281-1.194 1.837-0.563 0.563-1.094 0.906-1.837 1.2-0.563 0.219-1.413 0.481-2.969 0.55-1.688 0.075-2.194 0.094-6.463 0.094s-4.781-0.019-6.463-0.094c-1.563-0.069-2.406-0.331-2.969-0.55-0.744-0.288-1.281-0.637-1.838-1.194-0.563-0.563-0.906-1.094-1.2-1.837-0.219-0.563-0.481-1.413-0.55-2.969-0.075-1.688-0.094-2.194-0.094-6.463s0.019-4.781 0.094-6.463c0.069-1.563 0.331-2.406 0.55-2.969 0.288-0.744 0.638-1.281 1.194-1.838 0.563-0.563 1.094-0.906 1.838-1.2 0.563-0.219 1.412-0.481 2.969-0.55 1.681-0.075 2.188-0.094 6.463-0.094zM16 0c-4.344 0-4.887 0.019-6.594 0.094-1.7 0.075-2.869 0.35-3.881 0.744-1.056 0.412-1.95 0.956-2.837 1.85-0.894 0.888-1.438 1.781-1.85 2.831-0.394 1.019-0.669 2.181-0.744 3.881-0.075 1.713-0.094 2.256-0.094 6.6s0.019 4.887 0.094 6.594c0.075 1.7 0.35 2.869 0.744 3.881 0.413 1.056 0.956 1.95 1.85 2.837 0.887 0.887 1.781 1.438 2.831 1.844 1.019 0.394 2.181 0.669 3.881 0.744 1.706 0.075 2.25 0.094 6.594 0.094s4.888-0.019 6.594-0.094c1.7-0.075 2.869-0.35 3.881-0.744 1.050-0.406 1.944-0.956 2.831-1.844s1.438-1.781 1.844-2.831c0.394-1.019 0.669-2.181 0.744-3.881 0.075-1.706 0.094-2.25 0.094-6.594s-0.019-4.887-0.094-6.594c-0.075-1.7-0.35-2.869-0.744-3.881-0.394-1.063-0.938-1.956-1.831-2.844-0.887-0.887-1.781-1.438-2.831-1.844-1.019-0.394-2.181-0.669-3.881-0.744-1.712-0.081-2.256-0.1-6.6-0.1v0z"></path>
<path d="M16 7.781c-4.537 0-8.219 3.681-8.219 8.219s3.681 8.219 8.219 8.219 8.219-3.681 8.219-8.219c0-4.537-3.681-8.219-8.219-8.219zM16 21.331c-2.944 0-5.331-2.387-5.331-5.331s2.387-5.331 5.331-5.331c2.944 0 5.331 2.387 5.331 5.331s-2.387 5.331-5.331 5.331z"></path>
<path d="M26.462 7.456c0 1.060-0.859 1.919-1.919 1.919s-1.919-0.859-1.919-1.919c0-1.060 0.859-1.919 1.919-1.919s1.919 0.859 1.919 1.919z"></path>
</symbol>
<symbol id="icon-twitter" viewBox="0 0 32 32">
<path d="M32 7.075c-1.175 0.525-2.444 0.875-3.769 1.031 1.356-0.813 2.394-2.1 2.887-3.631-1.269 0.75-2.675 1.3-4.169 1.594-1.2-1.275-2.906-2.069-4.794-2.069-3.625 0-6.563 2.938-6.563 6.563 0 0.512 0.056 1.012 0.169 1.494-5.456-0.275-10.294-2.888-13.531-6.862-0.563 0.969-0.887 2.1-0.887 3.3 0 2.275 1.156 4.287 2.919 5.463-1.075-0.031-2.087-0.331-2.975-0.819 0 0.025 0 0.056 0 0.081 0 3.181 2.263 5.838 5.269 6.437-0.55 0.15-1.131 0.231-1.731 0.231-0.425 0-0.831-0.044-1.237-0.119 0.838 2.606 3.263 4.506 6.131 4.563-2.25 1.762-5.075 2.813-8.156 2.813-0.531 0-1.050-0.031-1.569-0.094 2.913 1.869 6.362 2.95 10.069 2.95 12.075 0 18.681-10.006 18.681-18.681 0-0.287-0.006-0.569-0.019-0.85 1.281-0.919 2.394-2.075 3.275-3.394z"></path>
</symbol>
<symbol id="icon-circle-up" viewBox="0 0 32 32">
<path d="M0 16c0 8.837 7.163 16 16 16s16-7.163 16-16-7.163-16-16-16-16 7.163-16 16zM29 16c0 7.18-5.82 13-13 13s-13-5.82-13-13 5.82-13 13-13 13 5.82 13 13z"></path>
<path d="M22.086 20.914l2.829-2.829-8.914-8.914-8.914 8.914 2.828 2.828 6.086-6.086z"></path>
</symbol>
<symbol id="icon-spinner3" viewBox="0 0 32 32">
<path d="M16 9.472c-1.030 0-1.865-0.835-1.865-1.865v-5.596c0-1.030 0.835-1.865 1.865-1.865s1.865 0.835 1.865 1.865v5.596c0 1.030-0.835 1.865-1.865 1.865z"></path>
<path d="M16 31.155c-0.644 0-1.166-0.522-1.166-1.166v-5.596c0-0.644 0.522-1.166 1.166-1.166s1.166 0.522 1.166 1.166v5.596c0 0.644-0.522 1.166-1.166 1.166z"></path>
<path d="M11.805 10.48c-0.604 0-1.192-0.314-1.516-0.875l-2.798-4.846c-0.483-0.836-0.196-1.906 0.64-2.389s1.906-0.196 2.389 0.64l2.798 4.846c0.483 0.836 0.196 1.906-0.64 2.389-0.275 0.159-0.576 0.235-0.873 0.235z"></path>
<path d="M22.995 29.164c-0.363 0-0.715-0.188-0.91-0.525l-2.798-4.846c-0.29-0.502-0.118-1.143 0.384-1.433s1.143-0.118 1.433 0.384l2.798 4.846c0.29 0.502 0.118 1.143-0.384 1.433-0.165 0.095-0.346 0.141-0.524 0.141z"></path>
<path d="M8.729 13.436c-0.277 0-0.557-0.070-0.814-0.219l-4.846-2.798c-0.781-0.451-1.048-1.449-0.597-2.229s1.449-1.048 2.229-0.597l4.846 2.798c0.781 0.451 1.048 1.449 0.597 2.229-0.302 0.524-0.851 0.816-1.415 0.816z"></path>
<path d="M28.114 23.927c-0.158 0-0.319-0.040-0.465-0.125l-4.846-2.798c-0.446-0.258-0.599-0.828-0.341-1.274s0.828-0.599 1.274-0.341l4.846 2.798c0.446 0.258 0.599 0.828 0.341 1.274-0.173 0.299-0.486 0.466-0.809 0.466z"></path>
<path d="M7.607 17.515h-5.596c-0.837 0-1.516-0.678-1.516-1.515s0.678-1.515 1.516-1.515h5.596c0.837 0 1.516 0.678 1.516 1.515s-0.678 1.515-1.516 1.515z"></path>
<path d="M29.989 16.933c-0 0 0 0 0 0h-5.596c-0.515-0-0.933-0.418-0.933-0.933s0.418-0.933 0.933-0.933c0 0 0 0 0 0h5.596c0.515 0 0.933 0.418 0.933 0.933s-0.418 0.933-0.933 0.933z"></path>
<path d="M3.886 24.394c-0.483 0-0.954-0.251-1.213-0.7-0.386-0.669-0.157-1.525 0.512-1.911l4.846-2.798c0.669-0.387 1.525-0.157 1.911 0.512s0.157 1.525-0.512 1.911l-4.846 2.798c-0.22 0.127-0.461 0.188-0.698 0.188z"></path>
<path d="M23.27 12.736c-0.322 0-0.636-0.167-0.809-0.466-0.258-0.446-0.105-1.016 0.341-1.274l4.846-2.798c0.446-0.257 1.016-0.105 1.274 0.341s0.105 1.016-0.341 1.274l-4.846 2.798c-0.147 0.085-0.307 0.125-0.465 0.125z"></path>
<path d="M9.004 29.397c-0.218 0-0.438-0.055-0.64-0.172-0.613-0.354-0.823-1.138-0.469-1.752l2.798-4.846c0.354-0.613 1.138-0.823 1.752-0.469s0.823 1.138 0.469 1.752l-2.798 4.846c-0.237 0.411-0.668 0.641-1.112 0.641z"></path>
<path d="M20.196 9.664c-0.158 0-0.319-0.040-0.465-0.125-0.446-0.258-0.599-0.828-0.341-1.274l2.798-4.846c0.258-0.446 0.828-0.599 1.274-0.341s0.599 0.828 0.341 1.274l-2.798 4.846c-0.173 0.299-0.486 0.466-0.809 0.466z"></path>
</symbol>
<symbol id="icon-clock" viewBox="0 0 32 32">
<path d="M20.586 23.414l-6.586-6.586v-8.828h4v7.172l5.414 5.414zM16 0c-8.837 0-16 7.163-16 16s7.163 16 16 16 16-7.163 16-16-7.163-16-16-16zM16 28c-6.627 0-12-5.373-12-12s5.373-12 12-12c6.627 0 12 5.373 12 12s-5.373 12-12 12z"></path>
</symbol>
</defs>
</svg>
